<svg width="23" height="22" viewBox="0 0 23 22" fill="none" xmlns="http://www.w3.org/2000/svg">
<path d="M6.16667 9.83332V19.1667C6.16667 19.4761 6.04375 19.7728 5.82496 19.9916C5.60617 20.2104 5.30942 20.3333 5 20.3333H2.66667C2.35725 20.3333 2.0605 20.2104 1.84171 19.9916C1.62292 19.7728 1.5 19.4761 1.5 19.1667V11C1.5 10.6906 1.62292 10.3938 1.84171 10.175C2.0605 9.95624 2.35725 9.83332 2.66667 9.83332H6.16667ZM6.16667 9.83332C7.40434 9.83332 8.59133 9.34166 9.4665 8.46649C10.3417 7.59132 10.8333 6.40433 10.8333 5.16666V3.99999C10.8333 3.38115 11.0792 2.78766 11.5168 2.35007C11.9543 1.91249 12.5478 1.66666 13.1667 1.66666C13.7855 1.66666 14.379 1.91249 14.8166 2.35007C15.2542 2.78766 15.5 3.38115 15.5 3.99999V9.83332H19C19.6188 9.83332 20.2123 10.0792 20.6499 10.5167C21.0875 10.9543 21.3333 11.5478 21.3333 12.1667L20.1667 18C19.9989 18.7157 19.6806 19.3303 19.2598 19.7511C18.8389 20.172 18.3383 20.3763 17.8333 20.3333H9.66667C8.73841 20.3333 7.84817 19.9646 7.19179 19.3082C6.53542 18.6518 6.16667 17.7616 6.16667 16.8333" stroke="#291F68" stroke-width="1.75" stroke-linecap="round" stroke-linejoin="round"/>
</svg>
